<?xml version="1.0" encoding="utf-8"?>
<!-- Generator: Adobe Illustrator 22.1.0, SVG Export Plug-In . SVG Version: 6.00 Build 0)  -->
<svg version="1.1" id="Layer_1" xmlns="http://www.w3.org/2000/svg" xmlns:xlink="http://www.w3.org/1999/xlink" x="0px" y="0px"
	 viewBox="0 0 101 100" style="enable-background:new 0 0 101 100;" xml:space="preserve">
<style type="text/css">
	.st0{fill:#FFFFFF;}
</style>
<g>
	<g>
		<path class="st0" d="M52.9,29.9c3.8,0,6.7,0.7,8.9,1.8c2.1,1.3,3.1,2.8,3.1,4.8c0,1.2-0.3,2-0.8,2.8c0,0,0,0.2-0.2,0.2
			c-0.5,0.7-1.3,1-2.1,1c-0.5,0-0.8-0.2-1.3-0.3c-0.5-0.3-1.2-0.5-1.8-0.8c-1.2-0.5-2.6-0.8-4.3-0.8c-3.1,0-5.6,1-7.2,3
			c-1.6,2-2.5,4.6-2.5,8.2s1,6.4,2.8,8.2c1.8,2,4.4,3,7.6,3c1.6,0,3.1-0.2,4.3-0.7c0.5-0.2,1-0.5,1.5-0.7c0.3-0.2,0.7-0.2,1.2-0.2
			c1,0,1.8,0.5,2.3,1.3l0,0c0.3,0.8,0.7,1.8,0.7,2.8c0,1.6-1,3.1-2.8,4.3c-1.8,1.2-4.8,1.8-8.5,1.8c-2.8,0-5.4-0.3-7.7-1.2
			c-2.3-0.8-4.6-2-6.4-3.6c-1.8-1.6-3.3-3.6-4.3-6.2c-1-2.5-1.6-5.4-1.6-8.9c0-3.3,0.5-6.1,1.5-8.5c1-2.5,2.5-4.6,4.1-6.2
			c1.8-1.6,3.8-3,6.1-3.8C47.8,30.3,50.2,29.9,52.9,29.9 M52.9,25c-3.3,0-6.4,0.5-9.2,1.6c-3,1.2-5.6,2.8-7.9,4.9
			c-2.3,2.1-3.9,4.8-5.3,7.9c-1.3,3.1-1.8,6.6-1.8,10.4c0,4.1,0.7,7.7,2,10.8c1.3,3.1,3.1,5.8,5.6,7.9c2.3,2.1,5.1,3.6,8.2,4.6
			c3,1,6.1,1.5,9.4,1.5c4.8,0,8.5-0.8,11.2-2.5c4.4-2.8,5.1-6.6,5.1-8.5c0-1.8-0.3-3.5-1.2-4.9c-1.3-2.6-3.9-4.1-6.7-4.1
			c-1.2,0-2.1,0.2-3.1,0.7c-0.5,0.2-0.8,0.3-1.3,0.5c-0.5,0.2-1.2,0.3-2.5,0.3c-2.5,0-3.5-0.8-4.1-1.5c-1-1-1.5-2.6-1.5-4.9
			c0-2.3,0.5-3.9,1.3-4.9c0.3-0.3,1-1.2,3.6-1.2c1,0,1.8,0.2,2.5,0.3c0.5,0.2,0.8,0.3,1.3,0.7c1.2,0.7,2.3,0.8,3.6,0.8
			c2.5,0,4.8-1.2,6.1-3.1l0.2-0.2c1.2-1.6,1.6-3.5,1.6-5.6c0-2.1-0.7-6.1-5.6-9C61.4,25.8,57.6,25,52.9,25L52.9,25z"/>
	</g>
	<g>
		<path class="st0" d="M83.8,69.7c-0.2,0.3-0.5,0.7-0.5,1.2c0,0.5-0.2,0.8,0,1.2c0,0.3,0.2,0.8,0.5,1.2c0.2,0.3,0.5,0.7,1,1
			c0.8,0.7,1.8,0.8,2.5,0.7c0.8-0.2,1.5-0.7,2-1.5c0.3-0.5,0.5-0.8,0.7-1.2c0.2-0.3,0.2-0.7,0.2-1c0.3-0.2,0.8-0.2,1.2-0.2
			c0.3,0,0.7,0.2,1,0.3c0.7,0.3,0.8,1,0.8,1.8c0,0.8-0.5,1.6-1.2,2.6c-0.7,0.8-1.3,1.6-2.1,2.1c-0.8,0.5-1.6,1-2.5,1.2
			c-0.8,0.2-1.6,0.2-2.6,0c-0.8-0.2-1.6-0.5-2.5-1.2c-1-0.7-1.6-1.3-2.1-2.1c-0.5-0.8-0.8-1.6-0.8-2.5c-0.2-0.8,0-1.6,0.2-2.5
			c0.2-0.8,0.7-1.6,1.2-2.5c0.7-1,1.5-1.6,2.1-2c0.8-0.3,1.5-0.3,2,0.2c0.3,0.2,0.5,0.5,0.7,0.7c0.2,0.3,0.3,0.7,0.3,0.8
			c-0.3,0.2-0.7,0.3-1,0.7C84.3,68.9,83.9,69.2,83.8,69.7z"/>
		<path class="st0" d="M92.8,53.3c1,0.3,2,0.7,2.6,1.2c0.7,0.5,1.3,1.2,1.6,1.8c0.3,0.7,0.7,1.5,0.7,2.5c0.2,0.8,0,1.8-0.3,2.8
			c-0.3,1-0.7,1.8-1.2,2.6c-0.5,0.7-1.2,1.3-1.8,1.8c-0.5,0.3-1.2,0.7-2.1,0.7c-0.8,0.2-1.8,0-2.8-0.2c-1-0.3-1.8-0.7-2.6-1.2
			c-0.7-0.5-1.3-1.2-1.6-1.8c-0.3-0.7-0.7-1.5-0.8-2.5c-0.2-0.8,0-1.8,0.2-2.8c0.3-1,0.7-1.8,1.2-2.6c0.5-0.7,1.2-1.3,1.8-1.8
			s1.5-0.7,2.5-0.8C90.8,52.9,91.8,52.9,92.8,53.3z M90.7,62c1,0.3,1.8,0.3,2.5,0c0.7-0.3,1-0.8,1.3-1.5c0.2-0.7,0-1.3-0.5-1.8
			c-0.5-0.5-1.2-0.8-2.1-1.2c-1-0.3-1.8-0.3-2.5,0s-1,0.7-1.2,1.5c-0.2,0.7,0,1.3,0.3,1.8C88.9,61.3,89.5,61.8,90.7,62z"/>
		<path class="st0" d="M90,42.1c-0.5,0-0.8,0.3-1.2,0.7c-0.3,0.3-0.3,0.8-0.2,1.3c0,0.3,0.2,0.7,0.3,1c0.2,0.3,0.3,0.7,0.5,0.8
			l8.9-1.3c0,0.2,0.2,0.5,0.3,0.8c0.2,0.3,0.2,0.7,0.2,1.2c0,0.3,0,0.7,0,1c0,0.3,0,0.7-0.2,0.8c-0.2,0.2-0.3,0.5-0.5,0.5
			c-0.3,0.2-0.7,0.3-1,0.3l-7.7,1.2c-0.5,0-0.8,0-1.2-0.2c-0.3-0.2-0.7-0.3-1-0.7c-0.5-0.5-1-1.2-1.3-2c-0.3-0.8-0.7-1.8-0.8-3
			c-0.3-2,0-3.5,0.7-4.6c0.7-1.2,1.8-1.8,3.3-2.1l8.1-1.2c0,0.2,0.2,0.5,0.3,0.8s0.2,0.7,0.2,1.2c0,0.3,0,0.7,0,1
			c0,0.3,0,0.5-0.2,0.8c-0.2,0.2-0.3,0.5-0.5,0.5c-0.3,0.2-0.7,0.3-1,0.3L90,42.1z"/>
		<path class="st0" d="M86.6,23.2c1.2-0.7,2.3-0.7,3.5-0.2c1.2,0.5,2.1,1.6,3.1,3.3c0.3,0.7,0.7,1.3,0.8,1.8
			c0.2,0.5,0.3,1.2,0.3,1.6c0,0.5,0,1-0.2,1.3s-0.5,0.7-0.8,0.8c-0.3,0.2-0.7,0.3-1,0.3c-0.3,0-0.7,0-1-0.2c0-0.7,0-1.2-0.2-1.8
			c-0.2-0.7-0.3-1.3-0.8-2.1c-0.3-0.5-0.5-0.8-0.8-1c-0.3-0.2-0.5-0.2-0.8,0c-0.2,0.2-0.3,0.3-0.3,0.5c0,0.3,0,0.7,0.2,1.2l0.2,0.8
			c0.5,1.5,0.7,2.6,0.5,3.6c-0.2,1-0.8,1.6-1.8,2.3c-0.5,0.3-1.2,0.5-1.8,0.5c-0.7,0-1.2-0.2-1.6-0.3c-0.5-0.3-1.2-0.7-1.6-1.2
			s-1-1.2-1.3-2c-0.3-0.5-0.5-1.2-0.8-1.6c-0.2-0.5-0.3-1-0.3-1.5c0-0.5,0-0.8,0.2-1.2c0.2-0.3,0.3-0.7,0.8-0.8
			c0.3-0.2,0.7-0.3,1-0.3c0.3,0,0.7,0,0.8,0.2c0,0.2,0,0.3,0,0.7s0.2,0.7,0.2,1c0.2,0.3,0.2,0.7,0.3,1c0.2,0.3,0.2,0.7,0.3,0.8
			c0.3,0.5,0.5,0.8,0.8,1s0.5,0.3,0.8,0.2c0.2-0.2,0.3-0.2,0.3-0.5c0-0.2,0-0.5-0.2-1l-0.2-0.8c-0.5-1.6-0.7-3-0.3-3.9
			C85.1,24.5,85.7,23.7,86.6,23.2z"/>
		<path class="st0" d="M80.3,17.6c0.3-0.3,0.5-0.7,0.3-1c0-0.3-0.3-0.7-0.7-1c-0.2-0.2-0.3-0.3-0.7-0.5c-0.2-0.2-0.5-0.3-0.7-0.3
			c0-0.2,0-0.5,0.2-0.8c0-0.3,0.2-0.5,0.5-0.7c0.5-0.5,1-0.7,1.6-0.7c0.7,0,1.5,0.5,2.3,1.3c1.2,1,1.6,2.1,1.8,3.1
			c0.2,1.2-0.3,2.1-1.5,3.3L76,28.4c-0.2-0.2-0.3-0.2-0.7-0.5s-0.7-0.5-0.8-0.7c-0.5-0.5-0.8-1-1-1.5c-0.2-0.5,0.2-1,0.7-1.6
			l1.2-1.2l-2.5-2.3c0-0.2,0.2-0.5,0.3-0.7c0.2-0.2,0.3-0.5,0.5-0.8c0.5-0.5,0.8-0.7,1.2-0.7c0.3,0,0.7,0.2,1,0.5l1.6,1.6L80.3,17.6
			z"/>
		<path class="st0" d="M66.2,18.3c-0.8-0.3-1.6-0.8-2.1-1.3c-0.7-0.5-1.2-1-1.5-1.6c-0.3-0.7-0.5-1.2-0.5-1.8c0-0.7,0.2-1.3,0.5-2.1
			L65,6.1c0.2-0.3,0.5-0.7,0.8-0.8c0.3-0.2,0.7-0.3,1.2-0.3c1.3-0.2,3,0.2,4.8,1.2c0.8,0.3,1.5,0.8,2.1,1.3c0.7,0.5,1,1,1.3,1.5
			c0.3,0.5,0.5,1.2,0.5,1.6c0,0.7-0.2,1.3-0.3,1.8c-0.5,1.2-1.2,1.8-2.1,2c-1,0.3-2.1,0.2-3.5-0.3l-3.3-1.2V13
			c-0.2,0.5-0.2,0.8,0.2,1.3c0.3,0.3,0.8,0.8,1.6,1.2c0.7,0.3,1.2,0.5,1.8,0.7c0.7,0.2,1.2,0.2,1.8,0.3c0.2,0.2,0.2,0.5,0.2,0.8
			c0,0.3,0,0.7-0.2,1s-0.5,0.7-0.8,0.8s-0.7,0.2-1.2,0.2s-1.2-0.2-1.8-0.3C67.3,18.7,66.7,18.4,66.2,18.3z M70.3,8.9
			c-0.3-0.2-0.7-0.2-1-0.3s-0.7-0.2-0.8-0.2l-0.8,2l1.8,0.7c0.5,0.2,0.8,0.3,1.2,0.2c0.3,0,0.7-0.2,0.8-0.5c0.2-0.3,0.2-0.7,0-1
			C71.3,9.4,70.8,9.2,70.3,8.9z"/>
		<path class="st0" d="M51.4,9.5c0,0.5,0.2,1,0.3,1.2c0.3,0.3,0.7,0.5,1.2,0.5c0.3,0,0.7,0,1,0c0.3,0,0.7-0.2,0.8-0.3l0.7-9
			c0.2,0,0.5,0,0.8-0.2c0.3,0,0.8,0,1.2,0c0.3,0,0.7,0,1,0.2c0.3,0,0.5,0.2,0.8,0.3c0.2,0.2,0.3,0.3,0.5,0.7c0.2,0.3,0.2,0.7,0.2,1
			l-0.5,7.7c0,0.5-0.2,0.8-0.3,1.2c-0.2,0.3-0.5,0.5-0.8,0.8c-0.7,0.3-1.3,0.7-2.3,0.8c-1,0.2-2,0.3-3,0.2c-2-0.2-3.5-0.7-4.4-1.6
			c-1-1-1.5-2.1-1.3-3.6l0.5-8.1c0.2,0,0.5,0,0.8-0.2c0.3,0,0.8,0,1.2,0c0.3,0,0.7,0,1,0.2c0.3,0,0.5,0.2,0.8,0.3
			c0.2,0.2,0.3,0.3,0.5,0.7C52,2.5,52,2.8,52,3.1L51.4,9.5z"/>
		<path class="st0" d="M38.4,7.7c-0.2-0.5-0.3-0.7-0.7-0.8s-0.8-0.2-1.3,0c-0.3,0-0.5,0.2-0.8,0.3c-0.3,0.2-0.5,0.2-0.7,0.3
			c-0.2-0.2-0.3-0.3-0.5-0.5c-0.2-0.2-0.3-0.5-0.3-0.8C34,5.6,34,5.1,34.5,4.5c0.3-0.5,1.2-1,2.3-1.3c1.5-0.3,2.6-0.3,3.6,0
			c1,0.5,1.6,1.5,2.1,3l3,10.7c-0.2,0.2-0.5,0.2-0.8,0.3c-0.3,0.2-0.7,0.3-1,0.3c-0.7,0.2-1.3,0.2-1.8,0.2c-0.5-0.2-0.8-0.7-1-1.5
			l-0.5-1.6l-3.3,1c-0.2-0.2-0.3-0.3-0.5-0.7c-0.2-0.3-0.3-0.5-0.3-0.8c-0.2-0.7-0.2-1,0-1.3c0.2-0.3,0.5-0.5,1-0.7l2.3-0.7
			L38.4,7.7z"/>
		<path class="st0" d="M25.6,8.6c0.2-0.2,0.3-0.3,0.7-0.5c0.3-0.2,0.7-0.5,1-0.7c0.3-0.2,0.7-0.3,1-0.5c0.3-0.2,0.5-0.2,0.8-0.2
			s0.5,0.2,0.7,0.3c0.2,0.2,0.5,0.5,0.7,0.8l5.1,9.2c-0.2,0.2-0.3,0.3-0.7,0.5c-0.3,0.2-0.7,0.5-1,0.7c-0.3,0.2-0.7,0.3-1,0.5
			c-0.3,0.2-0.5,0.2-0.8,0.2c-0.3,0-0.5-0.2-0.7-0.3c-0.2-0.2-0.5-0.5-0.7-0.8L25.6,8.6z M37.4,20.6c0.3,0.7,0.3,1.2,0.2,1.8
			c-0.2,0.7-0.7,1.2-1.2,1.5c-0.7,0.3-1.3,0.5-1.8,0.3c-0.7-0.2-1-0.5-1.3-1.2c-0.3-0.7-0.3-1.2-0.2-1.8s0.7-1.2,1.2-1.5
			c0.7-0.3,1.3-0.5,1.8-0.3S37.1,19.9,37.4,20.6z"/>
		<path class="st0" d="M20.8,23c0.3,0.3,0.8,0.5,1.2,0.5c0.3,0,0.8-0.3,1.2-0.7c0.2-0.3,0.5-0.5,0.7-0.8c0.2-0.3,0.3-0.7,0.3-0.8
			L17.7,15c0.2-0.2,0.2-0.3,0.5-0.7c0.2-0.3,0.5-0.7,0.8-0.8c0.3-0.3,0.5-0.5,0.8-0.7c0.3-0.2,0.5-0.3,0.8-0.3c0.3,0,0.5,0,0.8,0.2
			c0.3,0.2,0.5,0.3,0.8,0.7l5.6,5.4c0.3,0.3,0.5,0.7,0.7,1c0,0.3,0,0.7,0,1.2c-0.2,0.7-0.3,1.5-0.8,2.3s-1,1.6-1.8,2.5
			c-1.3,1.5-2.8,2.1-4.1,2.3c-1.3,0.2-2.6-0.3-3.6-1.3l-5.8-5.8c0.2-0.2,0.2-0.3,0.5-0.7c0.2-0.3,0.5-0.7,0.8-0.8
			c0.3-0.3,0.5-0.5,0.8-0.7c0.3-0.2,0.5-0.3,0.8-0.3c0.3,0,0.5,0,0.8,0.2c0.3,0.2,0.5,0.3,0.8,0.7L20.8,23z"/>
		<path class="st0" d="M7.5,33.7c0.7,0.2,1.2,0.7,1.5,1.2c0.3,0.5,0.3,1.3,0.2,2c-0.2,0.8-0.7,1.3-1.3,1.5c-0.7,0.3-1.3,0.3-2,0.2
			c-0.7-0.2-1.2-0.7-1.5-1.2c-0.3-0.5-0.3-1.3-0.2-2c0.2-0.8,0.7-1.3,1.3-1.5C6.2,33.5,6.9,33.4,7.5,33.7z"/>
		<path class="st0" d="M2.7,53.9c0-0.2-0.2-0.5-0.2-0.8c0-0.3-0.2-0.8-0.2-1.2c0-0.3,0-0.7,0-1c0-0.3,0.2-0.5,0.3-0.8
			c0.2-0.2,0.3-0.3,0.7-0.5c0.3-0.2,0.7-0.2,1-0.3l7.7-0.7c0.3,0,0.8,0,1,0.2c0.3,0.2,0.5,0.3,0.8,0.7c0.2,0.3,0.5,0.7,0.7,1
			c0.2,0.3,0.3,0.8,0.7,1.3c0.2,0.5,0.3,1,0.5,1.5c0.2,0.5,0.2,1,0.2,1.5c0,0.8,0,1.5-0.3,2c-0.3,0.5-0.8,0.8-1.5,0.8
			c-0.2,0-0.5,0-0.7,0c-0.2,0-0.5-0.2-0.7-0.2c0-0.3,0-0.7-0.2-1.2c0-0.3-0.2-0.8-0.2-1.2c-0.2-0.3-0.2-0.7-0.3-1
			c-0.2-0.3-0.2-0.7-0.3-0.8L2.7,53.9z"/>
		<path class="st0" d="M6.2,69c-0.3-1-0.7-1.8-0.7-2.8s0-1.8,0.3-2.6c0.3-0.8,0.8-1.6,1.5-2.3C8,60.7,8.8,60,10,59.7
			c1-0.5,2-0.7,3-0.7c1,0,1.6,0.2,2.5,0.7c0.7,0.3,1.3,0.8,1.8,1.5c0.5,0.7,1,1.3,1.3,2.1c0.3,0.8,0.5,1.6,0.5,2.5
			c0,0.8,0,1.5-0.3,2.3c-0.2,0.7-0.7,1.3-1.2,1.8c-0.5,0.5-1.2,1-1.8,1.3c-0.5,0.2-1,0.2-1.5,0c-0.5-0.2-0.8-0.5-1.2-1l-3.3-5.6
			c-0.5,0.3-0.7,1-0.8,1.6c0,0.7,0.2,1.3,0.3,2c0.3,0.7,0.7,1.3,1,1.8s0.8,1,1.2,1.2c0,0.3-0.2,0.7-0.3,1c-0.2,0.3-0.5,0.5-0.8,0.7
			c-0.7,0.3-1.5,0.2-2-0.3c-0.5-0.3-1-0.8-1.3-1.5C6.7,70.2,6.4,69.5,6.2,69z M15.4,64.4c-0.2-0.3-0.3-0.7-0.7-1
			c-0.2-0.2-0.5-0.3-0.8-0.5c-0.2,0-0.5-0.2-0.8,0c-0.3,0-0.5,0-0.8,0.2l2.3,3.8c0.3-0.2,0.5-0.5,0.8-1
			C15.6,65.6,15.6,64.9,15.4,64.4z"/>
		<path class="st0" d="M23.6,77.3c-0.3-0.3-0.7-0.7-1-0.8c-0.3-0.2-0.8-0.3-1.2-0.3c-0.3,0-0.8,0-1.2,0.2c-0.5,0.2-0.8,0.3-1.2,0.8
			c-0.8,0.7-1.3,1.5-1.3,2.3c0,0.8,0.3,1.5,1,2.1c0.3,0.3,0.7,0.7,1,0.8c0.3,0.2,0.7,0.3,1,0.5c0,0.5,0,0.8,0,1.2
			c-0.2,0.3-0.3,0.7-0.7,0.8c-0.5,0.5-1.2,0.7-2,0.3c-0.8-0.2-1.5-0.8-2.3-1.6c-0.7-0.8-1.3-1.6-1.6-2.5c-0.3-0.8-0.5-1.8-0.5-2.6
			c0-0.8,0.2-1.6,0.5-2.5c0.3-0.8,1-1.5,1.6-2.1c0.8-0.8,1.6-1.3,2.6-1.6c0.8-0.3,1.8-0.3,2.6-0.3c0.8,0.2,1.6,0.3,2.5,0.8
			c0.8,0.5,1.5,1,2.1,1.6c0.8,1,1.3,1.8,1.5,2.6c0.2,0.8,0,1.5-0.7,2c-0.2,0.2-0.5,0.3-0.8,0.5c-0.3,0-0.7,0.2-1,0.2
			c-0.2-0.3-0.2-0.7-0.5-1C24.3,77.9,23.9,77.6,23.6,77.3z"/>
		<path class="st0" d="M26.7,91.4c-0.2,0-0.5-0.2-0.8-0.3c-0.3-0.2-0.7-0.3-1-0.5c-0.3-0.2-0.7-0.3-0.8-0.7
			c-0.2-0.2-0.3-0.5-0.5-0.7c-0.2-0.2-0.2-0.5,0-0.8c0.2-0.3,0.2-0.7,0.5-1l5.8-8.9c0.2,0,0.5,0.2,0.8,0.3c0.3,0.2,0.7,0.3,1,0.5
			c0.3,0.2,0.7,0.3,0.8,0.7c0.2,0.3,0.3,0.5,0.5,0.7c0.2,0.2,0.2,0.5,0,0.8c-0.2,0.3-0.2,0.7-0.5,1L26.7,91.4z M31.5,75.3
			c0.3-0.5,0.8-1,1.5-1c0.7-0.2,1.2,0,1.8,0.3c0.7,0.3,1,0.8,1.2,1.5c0.2,0.7,0,1.2-0.3,1.8c-0.3,0.5-0.8,1-1.5,1
			c-0.7,0.2-1.2,0-1.8-0.3c-0.7-0.3-1-0.8-1.2-1.5C31,76.4,31,75.8,31.5,75.3z"/>
		<path class="st0" d="M40.7,83.3c1,0.3,2,0.7,2.6,1.2c0.8,0.5,1.5,1.2,1.8,1.8c0.5,0.7,0.8,1.5,0.8,2.5c0.2,1,0,2-0.3,3
			c-0.3,1.2-0.7,2-1.3,2.6c-0.7,0.7-1.2,1.3-1.8,1.6c-0.7,0.3-1.5,0.7-2.3,0.7s-1.8,0-2.6-0.3c-0.7-0.2-1.3-0.5-2-0.8l-0.8,4.1
			c-0.2,0-0.5,0-0.8,0c-0.3,0-0.8-0.2-1.2-0.2c-0.3-0.2-0.7-0.2-1-0.3c-0.3-0.2-0.5-0.3-0.7-0.5c-0.2-0.2-0.3-0.5-0.3-0.8
			c0-0.3,0-0.7,0.2-1l3.5-12c0.2-0.5,0.3-0.8,0.7-1s0.7-0.5,1-0.5c0.7-0.2,1.3-0.3,2.1-0.3C38.9,82.8,39.7,83,40.7,83.3z M38.1,92.9
			c1.6,0.5,2.8-0.3,3.5-2.3c0.3-1.2,0.3-2,0-2.6c-0.3-0.7-0.8-1.2-1.6-1.3c-0.3-0.2-0.7-0.2-0.8-0.2c-0.3,0-0.5,0-0.7,0L36.9,92
			c0.2,0.2,0.3,0.3,0.7,0.5C37.6,92.7,37.9,92.9,38.1,92.9z"/>
		<path class="st0" d="M56.8,97.8c-1,0.2-2,0-3-0.2c-0.8-0.2-1.6-0.5-2.5-1c-0.7-0.5-1.3-1.2-1.8-2c-0.5-0.8-0.8-1.8-0.8-3
			c-0.2-1.2,0-2.1,0.2-3c0.3-0.8,0.7-1.6,1.3-2.1c0.5-0.7,1.2-1,2-1.3c0.8-0.3,1.5-0.5,2.3-0.7c1-0.2,1.8,0,2.5,0.2
			c0.8,0.2,1.5,0.5,2.1,1c0.7,0.5,1.2,1,1.5,1.6c0.3,0.7,0.7,1.3,0.7,2.1c0,0.7,0,1-0.3,1.5c-0.3,0.3-0.7,0.7-1.3,0.8l-6.2,1.6
			c0.3,0.5,0.7,1,1.3,1.2c0.7,0.2,1.3,0.3,2.1,0.2c0.7,0,1.3-0.2,2-0.5c0.7-0.3,1.2-0.5,1.5-0.8c0.3,0.2,0.5,0.3,0.8,0.7
			c0.2,0.3,0.3,0.7,0.3,1c0.2,0.8-0.2,1.3-0.8,1.8c-0.5,0.3-1.2,0.7-1.8,0.8C58,97.6,57.3,97.8,56.8,97.8z M55,87.8
			c-0.5,0-0.8,0.2-1,0.3c-0.3,0.2-0.5,0.3-0.7,0.7c-0.2,0.2-0.3,0.5-0.3,0.8s-0.2,0.5,0,0.8l4.3-1.2c-0.2-0.3-0.3-0.7-0.7-1
			C56.2,87.8,55.5,87.6,55,87.8z"/>
		<path class="st0" d="M75.2,86.9c0.7,1.2,0.7,2.3,0,3.5c-0.5,1.2-1.6,2.1-3.5,3c-0.7,0.3-1.3,0.5-2,0.8c-0.7,0.2-1.2,0.3-1.6,0.3
			c-0.5,0-1-0.2-1.3-0.3c-0.3-0.2-0.7-0.5-0.8-0.8s-0.3-0.7-0.2-1c0-0.3,0.2-0.7,0.2-1c0.5,0,1.2,0,1.8-0.2c0.7-0.2,1.5-0.3,2.1-0.7
			c0.5-0.2,0.8-0.5,1-0.8c0.2-0.3,0.2-0.5,0.2-0.8c-0.2-0.2-0.3-0.3-0.5-0.3c-0.3,0-0.7,0-1.2,0.2l-0.8,0.2
			c-1.5,0.3-2.6,0.5-3.6,0.2c-1-0.2-1.6-0.8-2.1-2c0-0.5-0.2-1.2-0.2-1.6c0-0.7,0.2-1.2,0.5-1.6c0.3-0.5,0.7-1,1.3-1.5
			c0.5-0.5,1.2-1,2-1.3c0.7-0.3,1.2-0.5,1.6-0.7c0.5-0.2,1-0.3,1.5-0.3c0.5,0,0.8,0,1.2,0.2c0.3,0.2,0.7,0.5,0.8,0.8s0.3,0.7,0.3,1
			c0,0.3,0,0.7-0.2,0.8c-0.2,0-0.3,0-0.7,0s-0.7,0.2-1,0.2s-0.7,0.2-1,0.3c-0.3,0.2-0.7,0.2-0.8,0.3c-0.5,0.3-0.8,0.5-1.2,0.8
			C67,84.8,66.8,85,67,85.3c0.2,0.2,0.2,0.3,0.5,0.3c0.2,0,0.5,0,1-0.2l0.8-0.2c1.6-0.3,3-0.5,3.9-0.2C74.1,85.3,74.7,86,75.2,86.9z
			"/>
	</g>
</g>
</svg>
